<svg width="16" height="17" viewBox="0 0 16 17" fill="none" xmlns="http://www.w3.org/2000/svg">
<mask id="mask0_1651_140713" style="mask-type:alpha" maskUnits="userSpaceOnUse" x="0" y="0" width="16" height="17">
<rect y="0.5" width="16" height="16" fill="#D9D9D9"/>
</mask>
<g mask="url(#mask0_1651_140713)">
<path d="M5.73268 15.5L4.46602 13.3667L2.06602 12.8333L2.29935 10.3667L0.666016 8.5L2.29935 6.63333L2.06602 4.16667L4.46602 3.63333L5.73268 1.5L7.99935 2.46667L10.266 1.5L11.5327 3.63333L13.9327 4.16667L13.6994 6.63333L15.3327 8.5L13.6994 10.3667L13.9327 12.8333L11.5327 13.3667L10.266 15.5L7.99935 14.5333L5.73268 15.5ZM7.29935 10.8667L11.066 7.1L10.1327 6.13333L7.29935 8.96667L5.86602 7.56667L4.93268 8.5L7.29935 10.8667Z" fill="#3F25AE"/>
</g>
</svg>
